<svg width="16" height="16" viewBox="0 0 16 16" fill="none" xmlns="http://www.w3.org/2000/svg">
<path d="M1.52379 14.7386C2.09381 15.3607 2.88644 15.7325 3.7292 15.773C4.57196 15.8136 5.39665 15.5197 6.02379 14.9553L6.50713 14.4719C7.04928 13.8815 7.34663 13.1069 7.33889 12.3054C7.33115 11.5038 7.01891 10.7352 6.46546 10.1553C6.92147 9.47709 7.43743 8.84121 8.00713 8.25527C8.59026 7.68412 9.22025 7.16285 9.89046 6.69694C10.4691 7.25748 11.24 7.57574 12.0455 7.58658C12.8511 7.59743 13.6303 7.30004 14.2238 6.75527L14.7071 6.27194C15.2716 5.64479 15.5655 4.82011 15.5249 3.97735C15.4843 3.13459 15.1125 2.34195 14.4905 1.77194L13.6571 0.938604C13.3124 0.60042 12.8772 0.369301 12.4039 0.273177C11.9307 0.177053 11.4398 0.220038 10.9905 0.396937C8.56304 1.41122 6.35132 2.8791 4.47379 4.72194C2.63727 6.60902 1.17782 8.8293 0.173792 11.2636C-0.00310667 11.7129 -0.0460915 12.2039 0.0500325 12.6771C0.146157 13.1503 0.377275 13.5856 0.715459 13.9303L1.52379 14.7386ZM1.71546 11.8969C1.84046 11.5969 2.02379 11.1719 2.27379 10.6636C2.35713 10.4969 2.45713 10.3219 2.55713 10.1303C3.38084 8.57914 4.42192 7.15363 5.64879 5.89694C6.34143 5.21775 7.08835 4.59624 7.88213 4.0386C8.34879 3.70527 8.81546 3.4136 9.24879 3.15527C9.68213 2.89694 10.0821 2.70527 10.4155 2.52194C10.9238 2.27194 11.3488 2.0886 11.6488 1.9636C11.7896 1.90824 11.9436 1.8953 12.0916 1.9264C12.2397 1.9575 12.3755 2.03127 12.4821 2.1386L13.3155 2.97194C13.6244 3.23009 13.8194 3.59939 13.8584 4.00009C13.8974 4.40079 13.7772 4.80075 13.5238 5.1136L13.0405 5.59694C12.7266 5.84936 12.326 5.96813 11.9252 5.92759C11.5245 5.88705 11.1558 5.69045 10.8988 5.38027L10.1071 4.54694C9.69879 4.7886 9.27379 5.0636 8.85713 5.38027C8.13421 5.87491 7.45656 6.43265 6.83213 7.04694C5.86902 8.05452 5.02974 9.17356 4.33213 10.3803L5.09879 11.1469C5.40897 11.4039 5.60557 11.7726 5.64611 12.1734C5.68666 12.5741 5.56788 12.9747 5.31546 13.2886L4.83213 13.7719C4.51927 14.0253 4.11931 14.1455 3.71861 14.1065C3.31791 14.0675 2.94861 13.8725 2.69046 13.5636L1.85713 12.7303C1.75537 12.62 1.68783 12.4825 1.66268 12.3346C1.63753 12.1867 1.65587 12.0346 1.71546 11.8969Z" fill="white"/>
</svg>
