<svg width="28" height="28" viewBox="0 0 28 28" fill="none" xmlns="http://www.w3.org/2000/svg">
<g clip-path="url(#clip0_0_425)" filter="url(#filter0_d_0_425)">
<path fill-rule="evenodd" clip-rule="evenodd" d="M10.5 1.20972C10.2239 1.20972 10 1.43357 10 1.70972V8.19359H18.6613C18.9374 8.19359 19.1613 7.96973 19.1613 7.69359V5.41939H16.4516C15.6232 5.41939 14.9516 4.74782 14.9516 3.91939V1.20972H10.5ZM15.9516 1.20972V3.91939C15.9516 4.19554 16.1755 4.41939 16.4516 4.41939H19.1613V3.59167C19.1613 3.45906 19.1086 3.33189 19.0148 3.23812L17.1329 1.35616C17.0391 1.2624 16.9119 1.20972 16.7793 1.20972H15.9516ZM10 9.19359V18.5H22C22.2761 18.5 22.5 18.2762 22.5 18V10.0056C22.5 9.86514 22.4409 9.73112 22.3371 9.63639L20.1613 7.64975V7.69359C20.1613 8.52201 19.4897 9.19359 18.6613 9.19359H10ZM20.1613 6.29563V3.59167C20.1613 3.19385 20.0033 2.81232 19.722 2.53101L17.84 0.649057C17.5587 0.367752 17.1772 0.209717 16.7793 0.209717H10.5C9.67157 0.209717 9 0.88129 9 1.70972V4.85488H6C5.17157 4.85488 4.5 5.52645 4.5 6.35488V18C4.5 18.8285 5.17157 19.5 6 19.5H22C22.8284 19.5 23.5 18.8285 23.5 18V10.0056C23.5 9.58415 23.3227 9.18211 23.0114 8.89791L20.1613 6.29563ZM9 5.85488H6C5.72386 5.85488 5.5 6.07874 5.5 6.35488V18C5.5 18.2762 5.72386 18.5 6 18.5H9V5.85488Z" fill="#01568F" stroke="#01568F" stroke-width="0.5"/>
<path d="M11.8223 12.5969C11.8223 12.0446 12.27 11.5969 12.8223 11.5969C13.3746 11.5969 13.8223 12.0446 13.8223 12.5969C13.8223 13.1492 13.3746 13.5969 12.8223 13.5969C12.27 13.5969 11.8223 13.1492 11.8223 12.5969Z" fill="#01568F"/>
<path d="M11.8223 15.5C11.8223 14.9477 12.27 14.5 12.8223 14.5C13.3746 14.5 13.8223 14.9477 13.8223 15.5C13.8223 16.0523 13.3746 16.5 12.8223 16.5C12.27 16.5 11.8223 16.0523 11.8223 15.5Z" fill="#01568F"/>
<path d="M14.7256 12.5969C14.7256 12.0446 15.1733 11.5969 15.7256 11.5969C16.2779 11.5969 16.7256 12.0446 16.7256 12.5969C16.7256 13.1492 16.2779 13.5969 15.7256 13.5969C15.1733 13.5969 14.7256 13.1492 14.7256 12.5969Z" fill="#01568F"/>
<path d="M14.7256 15.5C14.7256 14.9477 15.1733 14.5 15.7256 14.5C16.2779 14.5 16.7256 14.9477 16.7256 15.5C16.7256 16.0523 16.2779 16.5 15.7256 16.5C15.1733 16.5 14.7256 16.0523 14.7256 15.5Z" fill="#01568F"/>
<path d="M17.6289 12.5969C17.6289 12.0446 18.0766 11.5969 18.6289 11.5969C19.1812 11.5969 19.6289 12.0446 19.6289 12.5969C19.6289 13.1492 19.1812 13.5969 18.6289 13.5969C18.0766 13.5969 17.6289 13.1492 17.6289 12.5969Z" fill="#01568F"/>
<path d="M17.6289 15.5C17.6289 14.9477 18.0766 14.5 18.6289 14.5C19.1812 14.5 19.6289 14.9477 19.6289 15.5C19.6289 16.0523 19.1812 16.5 18.6289 16.5C18.0766 16.5 17.6289 16.0523 17.6289 15.5Z" fill="#01568F"/>
</g>
<defs>
<filter id="filter0_d_0_425" x="0" y="0" width="28" height="28" filterUnits="userSpaceOnUse" color-interpolation-filters="sRGB">
<feFlood flood-opacity="0" result="BackgroundImageFix"/>
<feColorMatrix in="SourceAlpha" type="matrix" values="0 0 0 0 0 0 0 0 0 0 0 0 0 0 0 0 0 0 127 0" result="hardAlpha"/>
<feOffset dy="4"/>
<feGaussianBlur stdDeviation="2"/>
<feComposite in2="hardAlpha" operator="out"/>
<feColorMatrix type="matrix" values="0 0 0 0 0 0 0 0 0 0 0 0 0 0 0 0 0 0 0.25 0"/>
<feBlend mode="normal" in2="BackgroundImageFix" result="effect1_dropShadow_0_425"/>
<feBlend mode="normal" in="SourceGraphic" in2="effect1_dropShadow_0_425" result="shape"/>
</filter>
<clipPath id="clip0_0_425">
<rect width="20" height="20" fill="white" transform="translate(4)"/>
</clipPath>
</defs>
</svg>
