<svg width="55" height="55" viewBox="0 0 55 55" fill="none" xmlns="http://www.w3.org/2000/svg">
<path d="M26.8267 6.34013H26.4866C20.9312 6.45363 15.7166 8.72094 11.8616 12.6888C8.00685 16.6567 5.85304 21.9854 5.96616 27.5402C6.19277 38.8777 15.4894 48.1735 26.8269 48.1735H27.167C38.7309 47.9469 47.914 38.5368 47.6876 26.9727C47.5741 15.5225 38.164 6.33936 26.8269 6.33936L26.8267 6.34013ZM40.9978 39.3313L39.9775 38.3109C39.5238 37.8573 38.8436 37.8573 38.3904 38.3109C37.9368 38.7646 37.9368 39.4448 38.3904 39.898L39.4107 40.9184C36.4632 43.6393 32.4949 45.4534 28.3006 45.7935V44.3195C28.3006 43.7528 27.7339 43.1857 27.1668 43.1857C26.6001 43.1857 26.0329 43.7524 26.0329 44.3195V45.7935C21.725 45.5669 17.8702 43.9794 14.8091 41.2585L15.8295 40.2381C16.2831 39.7845 16.2831 39.1043 15.8295 38.6511C15.3759 38.1974 14.6956 38.1974 14.2424 38.6511L13.2221 39.6714C10.5012 36.7239 8.68708 32.7556 8.34696 28.5613H9.82092C10.3877 28.5613 10.9548 27.9946 10.9548 27.4275C10.9548 26.8607 10.5012 26.2936 9.82092 26.2936H8.34696C8.57358 22.0987 10.0475 18.1309 12.882 14.9561L13.9023 15.9765C14.1289 16.2031 14.3559 16.3166 14.696 16.3166C15.0361 16.3166 15.2628 16.2031 15.4898 15.9765C15.9434 15.5229 15.9434 14.8426 15.4898 14.3894L14.4694 13.369C17.5305 10.5346 21.4983 8.83405 25.5795 8.60744V10.0814C25.5795 10.6481 26.1462 11.2152 26.7134 11.2152C27.2801 11.2152 27.8472 10.6485 27.8472 10.0814V8.60744C32.1552 8.83405 36.01 10.4215 39.071 13.1424L38.0507 14.1628C37.597 14.6164 37.597 15.2966 38.0507 15.7499C38.2773 15.9765 38.5043 16.09 38.8444 16.09C39.1845 16.09 39.4111 15.9765 39.6381 15.7499L40.6585 14.7295C43.3794 17.677 45.1935 21.6453 45.5336 25.8396H44.0596C43.4929 25.8396 42.9258 26.4063 42.9258 26.9735C42.9258 27.5402 43.4925 28.1073 44.0596 28.1073H45.5336C45.3058 32.4157 43.6052 36.2701 40.9978 39.3311V39.3313Z" fill="white"/>
<path d="M17.8702 50.5549C17.5301 50.4414 17.19 50.3282 16.8499 50.1012C16.2831 49.8746 15.6029 50.1012 15.3759 50.668C15.1493 51.2347 15.3759 51.9149 15.9426 52.1419C16.2827 52.2554 16.6229 52.482 17.0765 52.5955C17.7567 52.8222 18.2103 52.5955 18.5504 51.9153C18.6639 51.4621 18.4369 50.7819 17.8702 50.5549Z" fill="white"/>
<path d="M30.6813 51.9154C30.0011 52.0289 29.2074 52.142 28.5272 52.142C27.9604 52.142 27.3933 52.7087 27.5068 53.3889C27.5068 53.9557 28.0735 54.4093 28.6407 54.4093H28.7542C29.5479 54.4093 30.3412 54.2958 31.135 54.1827C31.7017 54.0692 32.1553 53.5024 32.0418 52.9357C31.9287 52.2555 31.3616 51.8023 30.6813 51.9154Z" fill="white"/>
<path d="M24.2188 52.0291C23.5386 51.9156 22.7448 51.8025 22.0646 51.689C21.4979 51.5755 20.8176 51.9156 20.7041 52.5958C20.5906 53.1626 20.9308 53.8428 21.611 53.9563C22.4047 54.0698 23.1981 54.1829 23.9918 54.2964C24.672 54.2964 25.1256 53.9563 25.2388 53.2761C25.2391 52.7094 24.7859 52.1426 24.2188 52.0291Z" fill="white"/>
<path d="M47.0066 41.9394C46.553 42.5061 46.0998 43.0732 45.6462 43.6399C45.1925 44.0935 45.306 44.7738 45.7597 45.227C46.3264 45.6806 46.78 45.5671 47.3467 45.1135C47.9135 44.5468 48.3671 43.8665 48.8207 43.2994C49.1608 42.8458 49.0473 42.0525 48.5941 41.7124C48.1405 41.3722 47.3467 41.4857 47.0066 41.9393V41.9394Z" fill="white"/>
<path d="M36.9169 50.1021C36.2366 50.4422 35.5564 50.6689 34.8762 50.8959C34.3095 51.1225 33.9693 51.6896 34.196 52.3698C34.4226 52.9365 34.8762 53.1635 35.6699 53.05C36.4636 52.8234 37.1439 52.4833 37.9372 52.1432C38.504 51.9166 38.731 51.2364 38.504 50.6692C38.1638 50.1021 37.4836 49.8751 36.9169 50.1021V50.1021Z" fill="white"/>
<path d="M42.5845 46.7009C42.0178 47.1545 41.4507 47.6078 40.8839 47.9479C40.3172 48.288 40.2037 48.9682 40.5438 49.5349C40.9974 49.9886 41.5642 50.1017 42.1309 49.8751C42.8111 49.4214 43.3779 48.9682 44.0581 48.5146C44.5117 48.1745 44.6248 47.3807 44.1716 46.9275C43.7183 46.3608 43.0381 46.2473 42.5845 46.7009Z" fill="white"/>
<path d="M52.2219 17.3373C49.5009 10.535 44.3992 5.2069 37.7106 2.25859C31.0214 -0.575446 23.6522 -0.802448 16.8499 1.91847C10.9544 4.18616 6.07992 8.49416 3.01888 14.0499L2.22515 11.8957C1.99854 11.329 1.31831 10.9889 0.751188 11.2155C0.184459 11.4421 -0.155656 12.1223 0.0709578 12.6894L1.88503 17.2244C2.22515 17.9047 2.79188 18.1313 3.58561 17.678C4.83257 17.224 7.78049 16.0906 7.78049 16.0906C8.34722 15.864 8.68733 15.1837 8.46072 14.6166C8.23411 14.0499 7.55388 13.7098 6.98676 13.9364L5.28618 14.6166C8.12061 9.7415 12.4286 6.00024 17.7567 3.95936C23.9923 1.57855 30.7948 1.69205 36.9169 4.29947C42.9255 7.02039 47.6869 11.8955 50.0677 18.1315C52.562 24.367 52.335 31.1695 49.7276 37.2916C49.6141 37.6317 49.3874 37.9718 49.2739 38.3119C49.0473 38.8787 49.2739 39.5589 49.8407 39.7859C50.2943 40.0125 50.7475 39.7859 51.3146 39.2192C51.5412 38.8791 51.6547 38.5389 51.7682 38.1988C54.7162 31.5093 54.8293 24.0267 52.2219 17.3381V17.3373Z" fill="white"/>
<path d="M30.7945 29.4678C31.2481 28.7875 31.4747 27.9938 31.3612 27.087C31.3612 24.9328 29.8873 23.2322 27.8466 22.779L27.7331 17.9039C27.7331 17.3371 27.1663 16.77 26.5992 16.77C26.0325 16.77 25.4654 17.3367 25.4654 17.9039L25.5789 22.779C23.6517 23.3457 22.1777 25.1598 22.1777 27.2005C22.1777 29.6948 24.2184 31.7355 26.7127 31.7355H26.8262C27.62 31.7355 28.4133 31.5089 29.207 31.0552L34.989 36.6106C35.2156 36.8372 35.4426 36.9507 35.7827 36.9507C36.1228 36.9507 36.3495 36.8372 36.5765 36.6106C37.0301 36.157 37.0301 35.4767 36.5765 35.0235L30.7945 29.4678ZM24.5589 27.314C24.5589 26.067 25.5793 24.9332 26.9397 24.9332C28.1867 24.9332 29.207 25.9535 29.3205 27.2005C29.3205 29.6948 25.126 30.9417 24.5589 27.314Z" fill="white"/>
</svg>
