<svg width="69" height="59" viewBox="0 0 69 59" fill="none" xmlns="http://www.w3.org/2000/svg">
<path d="M40.3479 29.6253C40.3479 21.6477 33.8572 15.157 25.8796 15.157C17.9016 15.157 11.3438 21.6477 11.3438 29.6253C11.3438 37.6029 17.8344 44.0935 25.812 44.0935C33.8576 44.0935 40.3479 37.6029 40.3479 29.6253ZM25.8796 42.6061C18.7132 42.6061 12.8988 36.7918 12.8988 29.6253C12.8988 22.4587 18.7131 16.6444 25.8796 16.6444C33.0462 16.6444 38.8605 22.4587 38.8605 29.6253C38.7931 36.7917 32.9787 42.6061 25.8796 42.6061Z" fill="white" stroke="white" stroke-width="0.5"/>
<path d="M68.3384 33.8846L59.6166 26.8531C59.4138 26.6503 59.0757 26.6503 58.8055 26.7856C58.5352 26.921 58.3999 27.1912 58.3999 27.4619V31.1805L50.6246 31.18C50.6246 30.6391 50.6921 30.1661 50.6921 29.6252C50.6921 28.2051 50.5567 26.7182 50.2865 25.2982V25.2307V25.1633C50.2865 25.1633 50.2865 25.0959 50.2191 25.0959C50.2191 25.0959 50.2191 25.0284 50.1516 25.0284L50.0842 24.961C50.0842 24.961 50.0842 24.8936 50.0167 24.8936L49.9493 24.8261L49.8819 24.7587H49.8144C49.8144 24.7587 49.747 24.7587 49.747 24.6912H49.6795H49.6121H49.5447H49.4772H46.1643C45.6233 22.5955 44.8122 20.5671 43.6629 18.7415L46.1643 16.2401C46.1643 16.2401 46.1643 16.1727 46.2317 16.1727V16.1053V16.0378V15.9704V15.903V15.8355V15.7681V15.7006V15.6332V15.5658V15.4983C46.2317 15.4983 46.2317 15.4309 46.1643 15.4309C45.3531 14.2816 44.4066 13.1323 43.3922 12.1179H52.1815V15.8365C52.1815 16.1068 52.3168 16.3775 52.587 16.5128C52.7224 16.5803 52.7898 16.5803 52.9252 16.5803C53.128 16.5803 53.2633 16.5128 53.3987 16.4449L62.12 9.41383C62.3228 9.27848 62.3902 9.07569 62.3902 8.80546C62.3902 8.60267 62.2548 8.33197 62.12 8.19709L53.4642 1.16179C53.2614 0.959002 52.9233 0.959002 52.6531 1.09435C52.3828 1.2297 52.2475 1.49993 52.2475 1.77063V5.48924H30.6803V5.4218C30.6803 5.4218 30.6803 5.35436 30.6128 5.35436C30.6128 5.35436 30.6128 5.28692 30.5454 5.28692C30.5454 5.28692 30.478 5.28692 30.478 5.21948C30.478 5.21948 30.4105 5.21948 30.4105 5.15205C30.4105 5.15205 30.3431 5.15205 30.3431 5.08461C30.3431 5.08461 30.2757 5.08461 30.2757 5.01717H30.2082H30.1408C27.3012 4.54368 24.3264 4.54368 21.4869 5.01717H21.4194H21.352C21.352 5.01717 21.2845 5.01717 21.2845 5.08461C21.2845 5.08461 21.2171 5.08461 21.2171 5.15205C21.2171 5.15205 21.1497 5.15205 21.1497 5.21948C21.1497 5.21948 21.0822 5.21948 21.0822 5.28692C21.0822 5.28692 21.0822 5.35436 21.0148 5.35436C21.0148 5.35436 21.0148 5.4218 20.9473 5.4218C20.9473 5.4218 20.9473 5.48924 20.8799 5.48924V5.55668V5.62411V5.69155V5.75899V5.82643V9.13938C18.7842 9.68031 16.7558 10.4914 14.9302 11.6408L12.5614 9.34269L12.4265 9.20781C12.4265 9.20781 12.359 9.20781 12.359 9.14037H12.2916H12.2242H12.1567H12.0893H12.0219H11.9544H11.887H11.8195H11.7521H11.6847C11.6847 9.14037 11.6172 9.14037 11.6172 9.20781C9.25068 10.898 7.15492 12.9264 5.4647 15.3603C5.4647 15.3603 5.46471 15.4278 5.39727 15.4278V15.4952V15.5626V15.6301V15.6975V15.765V15.8324V15.8998V15.9673V16.0347V16.1022C5.39727 16.1022 5.39727 16.1696 5.4647 16.1696C5.4647 16.1696 5.46471 16.237 5.53214 16.237L7.96606 18.6709C6.81677 20.4965 6.00565 22.5249 5.46465 24.6206L2.14929 24.6221H2.08185H2.01441H1.94697H1.87953C1.87953 24.6221 1.8121 24.6221 1.8121 24.6895C1.8121 24.6895 1.74466 24.6895 1.74466 24.7569C1.74466 24.7569 1.67722 24.7569 1.67722 24.8244C1.67722 24.8244 1.60978 24.8244 1.60978 24.8918L1.4749 25.0267C1.4749 25.0267 1.4749 25.0941 1.40746 25.0941C1.40746 25.0941 1.40746 25.1616 1.34002 25.1616V25.229V25.2964C1.13535 26.7183 1 28.2053 1 29.6252C1 31.0451 1.13535 32.5322 1.40558 33.9522V34.0196V34.0871V34.1545C1.40558 34.1545 1.40558 34.2219 1.47302 34.2219V34.2894L1.54046 34.3568L1.74278 34.5591C1.74278 34.5591 1.81022 34.5591 1.81022 34.6266H1.87765H1.94509H2.01253H2.14788H5.46083C6.00176 36.7223 6.81289 38.7507 7.96224 40.5763L5.52832 43.0102C5.52832 43.0102 5.52832 43.0776 5.46088 43.0776C5.46088 43.0776 5.46088 43.1451 5.39344 43.1451V43.2125V43.2799V43.3474V43.4148V43.4823V43.5497V43.6171V43.6846V43.752V43.8194C5.39344 43.8194 5.39344 43.8869 5.46088 43.8869C7.1511 46.2534 9.17949 48.3492 11.6134 50.0394H11.6808C11.6808 50.0394 11.7483 50.0394 11.7483 50.1068H11.8157H11.8832H11.9506H12.0859H12.2213H12.2887C12.3562 50.1068 12.3562 50.1068 12.4241 50.0394H12.4915L14.9929 47.538C16.8185 48.6873 18.8469 49.4984 20.9426 50.0394V53.3524V53.4198V53.4872V53.5547V53.6221V53.6895C20.9426 53.6895 20.9426 53.757 21.0101 53.757C21.0101 53.757 21.0101 53.8244 21.0775 53.8244C21.0775 53.8244 21.0775 53.8919 21.1449 53.8919C21.1449 53.8919 21.2124 53.8919 21.2124 53.9593C21.2124 53.9593 21.2798 53.9593 21.2798 54.0267C21.2798 54.0267 21.3473 54.0267 21.3473 54.0942C21.3473 54.0942 21.4147 54.0942 21.4147 54.1616H21.4821H21.5496C22.9696 54.4318 24.4565 54.5672 25.8765 54.5672C27.2966 54.5672 28.7835 54.4318 30.2035 54.1616H30.2709H30.3384C30.3384 54.1616 30.4058 54.1616 30.4058 54.0942C30.4058 54.0942 30.4732 54.0942 30.4732 54.0267C30.4732 54.0267 30.5407 54.0267 30.5407 53.9593C30.5407 53.9593 30.6081 53.9593 30.6081 53.8919C30.6081 53.8919 30.6081 53.8244 30.6756 53.8244C30.6756 53.8244 30.6756 53.757 30.743 53.757V53.6895H48.8622V57.4082C48.8622 57.6784 48.9975 57.9491 49.2677 58.0844C49.4031 58.1519 49.4705 58.1519 49.6059 58.1519C49.8087 58.1519 49.944 58.0844 50.0794 58.0165L58.8007 50.9854C59.0035 50.8501 59.0709 50.6473 59.0709 50.3771C59.0709 50.1743 58.9355 49.9036 58.8007 49.7687L50.0166 42.8767C49.8138 42.6739 49.4757 42.6739 49.2054 42.8093C48.9352 42.9446 48.7998 43.2149 48.7998 43.4856V47.2042H43.459C44.4729 46.1902 45.4194 45.1084 46.2311 43.8912C46.2311 43.8912 46.2311 43.8238 46.2985 43.8238V43.7563V43.6889V43.6215V43.554V43.4866V43.4191V43.3517V43.2843V43.2168V43.1494C46.2985 43.1494 46.2985 43.0819 46.2311 43.0819L43.7297 40.5805C44.2706 39.7015 44.7436 38.755 45.1497 37.8085H58.2658V41.5271C58.2658 41.7973 58.4012 42.068 58.6714 42.2034C58.8067 42.2708 58.8742 42.2708 59.0095 42.2708C59.2123 42.2708 59.3477 42.2033 59.483 42.1354L68.3388 35.0341C68.5416 34.8988 68.609 34.696 68.609 34.4257C68.609 34.2225 68.4737 34.0197 68.3388 33.8848L68.3384 33.8846ZM52.9912 7.04392C53.3968 7.04392 53.7349 6.70578 53.7349 6.3002V3.39327L60.4958 8.80209L53.7349 14.2109V11.304C53.7349 10.8984 53.3968 10.5603 52.9912 10.5603L41.8355 10.5593C41.2946 10.0858 40.7537 9.68026 40.1453 9.27463C40.1453 9.27463 40.0779 9.27463 40.0779 9.20719H40.0104H39.943H39.8755H39.8081H39.7407H39.6732H39.6058H39.5384H39.4709H39.4035C39.4035 9.20719 39.336 9.20719 39.336 9.27463C39.336 9.27463 39.2686 9.27463 39.2686 9.34206C39.2686 9.34206 39.2012 9.34207 39.2012 9.4095L36.8346 11.7761C35.0091 10.6268 32.9807 9.81564 30.8849 9.27465V7.04356L52.9912 7.04392ZM22.432 52.6799V49.4348V49.2994V49.232V49.1645C22.432 49.1645 22.432 49.0971 22.3646 49.0971V49.0296C22.3646 49.0296 22.3646 48.9622 22.2972 48.9622C22.2972 48.9622 22.2972 48.8948 22.2297 48.8948C22.2297 48.8948 22.1623 48.8948 22.1623 48.8273L22.0948 48.7599C22.0948 48.7599 22.0274 48.7599 22.0274 48.6925H21.96C21.8925 48.6925 21.8925 48.6925 21.8246 48.625C19.4581 48.1515 17.2948 47.205 15.2666 45.9209C15.1991 45.9209 15.1991 45.8535 15.1312 45.8535H15.0638H14.9963H14.9289H14.8615H14.794H14.7266H14.6591H14.5917C14.5917 45.8535 14.5243 45.8535 14.5243 45.9209H14.4568C14.3894 45.9209 14.3894 45.9883 14.3215 45.9883L12.0229 48.2869C10.1973 46.9349 8.50712 45.312 7.15507 43.4191L9.52113 41.053V40.9856C9.52113 40.9856 9.52113 40.9181 9.58857 40.9181V40.8507V40.7833V40.7158V40.6484V40.581V40.5135V40.4461V40.3786C9.58857 40.3112 9.52113 40.3112 9.52113 40.2433C8.23644 38.2149 7.29004 36.0517 6.81702 33.6852C6.81702 33.6178 6.81702 33.6178 6.74958 33.5499V33.4824C6.74958 33.4824 6.74958 33.415 6.68215 33.415L6.54727 33.2801L6.47983 33.2127C6.47983 33.2127 6.41239 33.2127 6.41239 33.1453C6.41239 33.1453 6.34495 33.1453 6.34495 33.0778H6.27751H6.21007H6.14263H6.00728L2.75796 33.0731C2.62261 31.9238 2.48773 30.7745 2.48773 29.6252C2.48773 28.4758 2.55517 27.3266 2.75796 26.1772H6.07091H6.20626H6.2737H6.34114H6.40857C6.40857 26.1772 6.47601 26.1772 6.47601 26.1098H6.54345L6.74577 25.9075V25.84C6.74577 25.84 6.74577 25.7726 6.81321 25.7726V25.7052C6.81321 25.6377 6.81321 25.6377 6.88065 25.5698C7.35414 23.2033 8.30067 21.04 9.58476 19.0118C9.58476 18.9443 9.6522 18.9443 9.6522 18.8764V18.809V18.7415V18.6741V18.6067V18.5392V18.4718V18.4043V18.3369C9.6522 18.3369 9.6522 18.2695 9.58476 18.2695V18.202C9.58476 18.1346 9.51732 18.1346 9.51732 18.1346L7.08485 15.7653C8.43691 13.9397 10.0598 12.2495 11.9527 10.8974L14.3861 13.3309H14.4536C14.521 13.3309 14.521 13.3309 14.5889 13.3983H14.6563H14.7917H14.927H14.9945H15.0619H15.1294C15.1968 13.3983 15.1968 13.3309 15.2647 13.3309C17.2931 12.0462 19.4563 11.0998 21.8228 10.6268C21.8902 10.6268 21.8902 10.6268 21.9581 10.5593H22.0256C22.0256 10.5593 22.093 10.5593 22.093 10.4919C22.093 10.4919 22.1604 10.4919 22.1604 10.4244C22.1604 10.4244 22.2279 10.4244 22.2279 10.357C22.2279 10.357 22.2279 10.2896 22.2953 10.2896C22.2953 10.2896 22.2953 10.2221 22.3627 10.2221V10.1547C22.3627 10.1547 22.3627 10.0873 22.4302 10.0873V10.0198V9.95237V9.81702V6.57192C24.7288 6.23378 27.0273 6.23378 29.3264 6.57192V9.81702V9.95237V10.0198V10.0873C29.3264 10.0873 29.3264 10.1547 29.3938 10.1547V10.2221C29.3938 10.2221 29.3938 10.2896 29.4613 10.2896C29.4613 10.2896 29.4613 10.357 29.5287 10.357C29.5287 10.357 29.5962 10.357 29.5962 10.4244L29.6636 10.4919C29.6636 10.4919 29.731 10.4919 29.731 10.5593H29.7985C29.8659 10.5593 29.8659 10.5593 29.9338 10.6268C32.3004 11.1003 34.4636 12.0468 36.4919 13.3309C36.5593 13.3309 36.5593 13.3983 36.6272 13.3983H36.6947H36.7621H36.8295H36.9649H37.1002H37.1677C37.2351 13.3983 37.2351 13.3983 37.303 13.3309H37.3705L39.8039 10.8974C41.6295 12.2495 43.3197 13.8723 44.6717 15.7653L42.3732 18.0638C42.2416 18.1318 42.1737 18.1318 42.1737 18.1992V18.2666C42.1737 18.2666 42.1737 18.3341 42.1062 18.3341V18.4015V18.469V18.5364V18.6038V18.6713V18.7387V18.8061V18.8736C42.1062 18.941 42.1737 18.941 42.1737 19.0089C43.4584 21.0373 44.4048 23.2006 44.8778 25.567C44.8778 25.6344 44.8778 25.6344 44.9452 25.7023V25.7698C44.9452 25.7698 44.9452 25.8372 45.0127 25.8372V25.9047L45.0801 25.9721L45.215 26.107H45.2824C45.2824 26.107 45.3499 26.107 45.3499 26.1744H45.4173H45.4847H45.5522H45.6875H49.0005C49.1358 27.3237 49.2707 28.473 49.2707 29.6223C49.2707 30.7716 49.2033 31.9209 49.0005 33.0703L45.622 33.0731H45.4866H45.4192H45.3517C45.3517 33.0731 45.2843 33.0731 45.2843 33.1405C45.2843 33.1405 45.2169 33.1405 45.2169 33.208C45.2169 33.208 45.1494 33.208 45.1494 33.2754C45.1494 33.2754 45.082 33.2754 45.082 33.3428L45.0145 33.4103L44.9471 33.4777C44.9471 33.4777 44.9471 33.5452 44.8797 33.5452V33.6126C44.8797 33.68 44.8797 33.68 44.8122 33.748C44.3387 36.1145 43.3922 38.2777 42.1081 40.306C42.1081 40.3734 42.0407 40.3734 42.0407 40.4414V40.5088V40.5762V40.6437V40.7111V40.7785V40.846V40.9134V40.9809C42.0407 40.9809 42.0407 41.0483 42.1081 41.0483V41.1157C42.1081 41.1832 42.1756 41.1832 42.1756 41.2511L44.4741 43.5497C43.1221 45.3752 41.4992 47.0654 39.6063 48.4175L37.2402 46.0514H37.1728C37.1728 46.0514 37.1054 46.0514 37.1054 45.984H37.0379H36.9705H36.903H36.8356H36.7682H36.7007H36.6333H36.5659C36.4984 45.984 36.4984 46.0514 36.4305 46.0514C34.4021 47.3361 32.2389 48.2825 29.8725 48.7555C29.805 48.7555 29.805 48.7555 29.7371 48.823H29.6697C29.6697 48.823 29.6022 48.823 29.6022 48.8904C29.6022 48.8904 29.5348 48.8904 29.5348 48.9579C29.5348 48.9579 29.4673 48.9579 29.4673 49.0253C29.4673 49.0253 29.4673 49.0927 29.3999 49.0927C29.3999 49.0927 29.3999 49.1602 29.3325 49.1602V49.2276C29.3325 49.2276 29.3325 49.2951 29.265 49.2951V49.3625V49.4299V49.5653V52.8104C27.0296 53.0179 24.6632 53.0179 22.432 52.6797L22.432 52.6799ZM49.5432 48.6911C49.9487 48.6911 50.2869 48.3529 50.2869 47.9473V45.0404L57.0478 50.4492L50.2869 55.858V52.9511C50.2869 52.5455 49.9487 52.2074 49.5432 52.2074L30.8155 52.2064V49.9754C32.9113 49.4344 34.9397 48.6233 36.7652 47.474L39.2666 49.9754H39.3341C39.4015 49.9754 39.4015 49.9754 39.4694 50.0428H39.5368H39.6722H39.8076H39.875H39.9424H40.0099C40.0099 50.0428 40.0773 50.0428 40.0773 49.9754H40.1447C40.7531 49.5698 41.294 49.0963 41.835 48.6907L49.5432 48.6911ZM59.8878 39.9018V36.9949C59.8878 36.5893 59.5497 36.2511 59.1441 36.2511L45.7575 36.2507C45.9603 35.7097 46.0957 35.1688 46.231 34.6279H49.544H49.6793H49.7468H49.8142H49.8816C49.8816 34.6279 49.9491 34.6279 49.9491 34.5605L50.0165 34.4931C50.0165 34.4931 50.084 34.4931 50.084 34.4256L50.2188 34.2907V34.2233C50.2188 34.2233 50.2188 34.1559 50.2863 34.1559V34.0884V34.021V33.9535C50.3537 33.548 50.4216 33.1424 50.4891 32.6689H59.0755C59.4811 32.6689 59.8192 32.3307 59.8192 31.9251V29.0182L66.5801 34.427L59.8878 39.9018Z" fill="white" stroke="white" stroke-width="0.5"/>
</svg>
