<svg width="50" height="71" viewBox="0 0 50 71" fill="none" xmlns="http://www.w3.org/2000/svg">
<circle cx="25.0002" cy="46.6902" r="15.6946" stroke="#01568F" stroke-width="2"/>
<circle cx="25" cy="46.6906" r="23.3096" stroke="#01568F" stroke-width="2"/>
<path d="M24.1431 40.388C24.5318 39.7422 25.4681 39.7422 25.8567 40.388L26.7135 39.8723L25.8567 40.388L27.2732 42.7418C27.6921 43.4378 28.3754 43.9342 29.1668 44.1175L31.8431 44.7373C32.5774 44.9074 32.8667 45.7979 32.3726 46.3671L30.5718 48.4416C30.0393 49.0551 29.7783 49.8583 29.8485 50.6676L30.086 53.4045C30.1512 54.1554 29.3937 54.7058 28.6997 54.4117L26.1702 53.3401C25.4222 53.0232 24.5776 53.0232 23.8296 53.3401L21.3001 54.4117C20.6061 54.7058 19.8486 54.1554 19.9138 53.4045L20.1513 50.6676C20.2215 49.8583 19.9606 49.0551 19.428 48.4416L17.6272 46.3671C17.1331 45.7979 17.4224 44.9074 18.1567 44.7373L20.833 44.1175C21.6244 43.9342 22.3077 43.4378 22.7266 42.7418L24.1431 40.388Z" stroke="#01568F" stroke-width="2"/>
<path d="M14.163 25.3096V18.3515C14.163 16.6946 15.5061 15.3515 17.163 15.3515H20.0207M36.1295 25.3096V18.3515C36.1295 16.6946 34.7864 15.3515 33.1295 15.3515H29.9789M20.0207 15.3515H29.9789M20.0207 15.3515L18.8492 14.4663M29.9789 15.3515L30.8575 14.6876M18.8492 14.4663L7.71351 6.86747C7.16747 6.49487 6.84082 5.87651 6.84082 5.21546L6.84082 3C6.84082 1.89543 7.73625 1 8.84082 1H41.1588C42.2634 1 43.1588 1.89543 43.1588 3V5.21698C43.1588 5.87719 42.833 6.49487 42.2881 6.86765L30.8575 14.6876M18.8492 14.4663V6.27197M30.8575 6.27197V14.6876" stroke="#01568F" stroke-width="2"/>
</svg>
