<svg width="79" height="70" viewBox="0 0 79 70" fill="none" xmlns="http://www.w3.org/2000/svg">
<path d="M73.444 42.3569C73.0698 42.1846 72.628 42.2723 72.3475 42.5739C71.3803 43.6136 68.8512 44.4664 65.5829 44.8539C60.8844 45.4003 58.7047 49.7379 58.8842 53.0838C57.4522 54.8222 57.1325 56.4422 57.1106 56.5614V56.5608C57.0647 56.8092 57.1191 57.0661 57.2618 57.2746C57.405 57.4832 57.6251 57.6264 57.8735 57.6724C58.3909 57.7685 58.889 57.427 58.9851 56.9095C59.0177 56.7439 59.8459 52.8269 65.2747 51.2595C65.7806 51.1138 66.0726 50.5849 65.9263 50.0796C65.7806 49.5737 65.2517 49.2817 64.7464 49.428C63.4081 49.7997 62.1386 50.3873 60.989 51.1664C61.4708 48.9135 63.3513 47.0041 65.8073 46.7471C67.6575 46.5282 69.9159 46.1027 71.6917 45.2776C70.51 49.5095 69.2998 53.0202 63.4063 53.7159L63.4057 53.7153C62.9009 53.7667 62.5244 54.2043 62.5497 54.7115C62.5751 55.218 62.9928 55.6164 63.5 55.617C66.5199 55.371 68.5304 54.0768 68.786 53.8665C73.0602 51.1373 73.956 43.6474 73.9924 43.3288V43.3294C74.0383 42.9208 73.8177 42.5285 73.4441 42.3568L73.444 42.3569Z" fill="#01568F"/>
<path d="M13.6463 44.0065C12.6852 42.2615 11.0749 40.9643 9.16539 40.396C5.9393 39.4241 3.54077 38.1129 2.74957 36.8895C2.52591 36.5438 2.1058 36.3806 1.70746 36.4852C1.30972 36.5891 1.0232 36.9373 0.997821 37.3483C0.977269 37.6747 0.548104 45.3642 4.35808 48.864C4.63069 49.1481 6.25245 50.727 9.43383 51.5854V51.5848C9.67863 51.6531 9.94097 51.6204 10.1616 51.4947C10.3822 51.369 10.5436 51.1598 10.6101 50.915C10.676 50.6696 10.6415 50.4079 10.514 50.1878C10.3865 49.9684 10.1767 49.8082 9.9307 49.7442C7.08186 48.9753 5.74472 47.5559 5.73637 47.5457C3.64423 45.6924 3.06518 42.0488 2.92684 39.675C4.56852 40.8313 6.78213 41.6679 8.61615 42.2204C11.08 42.9294 12.6316 45.2239 12.7006 47.6037C11.6742 46.5973 10.4882 45.768 9.19102 45.1478C8.71833 44.9163 8.1471 45.1115 7.91559 45.5842C7.68408 46.0569 7.87932 46.6281 8.35202 46.8597C13.5413 49.4038 13.6871 53.4955 13.6901 53.6829C13.6949 54.2094 14.1253 54.6319 14.6518 54.6271C15.1782 54.6229 15.6014 54.1919 15.5965 53.6654C15.5965 53.5421 15.5621 51.8557 14.4287 49.8524C14.5895 49.1125 15.0029 46.5229 13.6465 44.0066L13.6463 44.0065Z" fill="#01568F"/>
<path d="M47.5462 68.0923H43.2866L41.31 38.8844C41.2961 38.6299 41.1807 38.3918 40.9897 38.2231C40.7986 38.0539 40.5478 37.9686 40.2939 37.9862C40.0394 38.0031 39.8025 38.1216 39.6362 38.3144C39.4694 38.5078 39.3878 38.7593 39.4078 39.0132L41.3766 68.0926H35.4734L37.6531 33.7844C38.3513 33.9059 39.0688 33.8617 39.747 33.6556L42.9452 36.3358V36.3352C43.0062 36.3866 43.0733 36.4295 43.1447 36.4639L58.2715 43.7273C60.3231 44.7253 62.6738 42.797 62.5536 40.6251C62.5366 39.7342 62.0954 38.9042 61.3664 38.391L47.5501 28.8682C47.4842 28.8228 47.4135 28.7866 47.3391 28.7588L42.2399 26.8765C42.1238 26.6963 41.9957 26.5247 41.856 26.3627L42.8062 20.8898C42.8195 20.8113 42.8232 20.7321 42.8171 20.6523L41.5109 3.92294C41.3458 1.65564 38.5108 0.579705 36.6793 1.77587C35.9171 2.23769 35.4202 3.03558 35.3428 3.92356L34.0366 20.6529C34.0305 20.7321 34.0342 20.8119 34.0474 20.8905L34.9977 26.3633C34.858 26.5253 34.7293 26.6963 34.6138 26.8765L29.5146 28.7588C29.4402 28.7866 29.3689 28.8235 29.3036 28.8688L15.4873 38.3916H15.4879C14.7583 38.9048 14.3177 39.7347 14.3001 40.6258C14.1829 42.7957 16.5277 44.7265 18.5822 43.7279L33.709 36.4645C33.7809 36.4301 33.848 36.3872 33.9085 36.3358L35.6741 34.8561L33.5626 68.0935H29.3066C28.0511 68.1303 28.0426 69.96 29.3066 69.9999H47.5462C48.7999 69.9636 48.8114 68.1334 47.5462 68.0935L47.5462 68.0923ZM35.8015 29.3197C35.8021 28.6233 36.0789 27.956 36.5709 27.464C37.063 26.972 37.7303 26.6951 38.4266 26.6945C41.9102 26.8384 41.9084 31.801 38.4266 31.9462C37.7303 31.945 37.063 31.6681 36.5709 31.1761C36.0783 30.6835 35.8021 30.0161 35.8015 29.3198V29.3197ZM46.5664 30.5051L60.2847 39.9607C60.5156 40.1342 60.6504 40.4062 60.6486 40.6951C60.706 41.4634 59.8585 42.3519 59.097 42.008L44.0772 34.7966L41.5052 32.6411C42.4694 31.7501 42.9989 30.4838 42.9548 29.1714L46.5664 30.5051ZM37.243 4.07173C37.3712 2.90269 39.482 2.90148 39.6102 4.07173L40.9073 20.6819L40.136 25.1242H40.1354C39.0395 24.6799 37.8137 24.6799 36.7171 25.1242L35.9458 20.6813L37.243 4.07173ZM32.7754 34.7976L17.7562 42.0095C16.9951 42.3522 16.1465 41.4649 16.2046 40.6966L16.2052 40.696C16.2033 40.407 16.3381 40.1344 16.5691 39.9609L30.2868 30.5058L33.8985 29.1723C33.8544 30.4846 34.3839 31.751 35.348 32.642L32.7754 34.7976Z" fill="#01568F"/>
<path d="M4.01486 22.6317C4.29774 22.7 23.4986 22.6281 23.7725 22.6535C27.1237 22.153 28.1779 19.3119 28.0558 18.0184C28.08 15.2052 26.0417 13.8815 24.5541 13.439C23.8312 11.2193 22.1483 9.9597 19.8332 9.9337C19.1054 8.16019 17.6759 6.8673 15.7421 6.25498C11.9987 5.08413 8.7805 7.93844 7.94937 10.4615V10.4609C7.20951 10.3545 6.45451 10.4355 5.7534 10.6955C4.04766 11.2473 3.24733 12.7173 2.93289 13.4977C2.04613 13.8676 1.29229 14.4969 0.76957 15.3026C0.246103 16.109 -0.0210772 17.0537 0.00129878 18.0138C0.122192 21.0005 2.67976 22.3405 4.01504 22.6319L4.01486 22.6317ZM3.98403 15.1369C4.2905 15.0335 4.52442 14.7839 4.60783 14.4713C4.59635 14.4369 5.12768 12.8066 6.45563 12.4676C7.04981 12.2657 7.69538 12.2747 8.28346 12.4924C8.54398 12.5794 8.82929 12.5516 9.06745 12.415C9.30622 12.2784 9.47486 12.0469 9.53168 11.7779C9.55647 11.6582 10.1627 8.83774 12.9651 8.0453V8.0459C13.6857 7.83918 14.4509 7.84825 15.1661 8.0725C16.2613 8.41886 17.6842 9.23488 18.2404 11.1516H18.241C18.3667 11.5795 18.7723 11.8643 19.2178 11.8371C21.0391 11.7633 22.3174 12.2807 22.8314 14.3909H22.8307C22.8997 14.7978 23.2206 15.1151 23.628 15.1798C23.8898 15.2215 26.1819 15.6543 26.1487 18.0238C26.1487 18.1641 26.2804 20.1189 23.6655 20.7481L4.33799 20.7475C3.91003 20.626 1.98898 19.9701 1.90619 17.9319C1.89833 17.7185 1.88866 15.8271 3.9844 15.1369L3.98403 15.1369Z" fill="#01568F"/>
<path d="M78.8005 10.9471C78.821 8.38465 76.9876 7.16543 75.6216 6.74236C74.9627 4.76149 73.4285 3.60029 71.3534 3.56532C70.68 1.96774 69.3798 0.802831 67.6275 0.248539C64.2498 -0.811099 61.3017 1.71921 60.5099 4.03017H60.5105C59.851 3.94796 59.1819 4.02533 58.5587 4.25563C57.0131 4.75673 56.2744 6.07325 55.974 6.80039C55.1659 7.14675 54.4804 7.72704 54.0052 8.46636C53.5301 9.20622 53.2877 10.0706 53.3089 10.9495C53.4715 13.7917 55.8126 15.0128 57.206 15.2237H74.8436C74.9114 15.2237 74.9784 15.2165 75.0449 15.2019C78.1363 14.5328 78.8513 12.1476 78.8006 10.9471L78.8005 10.9471ZM74.7366 13.3165H57.3279C56.9223 13.1992 55.2848 12.6201 55.2135 10.8666C55.2068 10.681 55.202 9.03814 57.0238 8.43727L57.0244 8.43787C57.3339 8.33572 57.5697 8.08304 57.6495 7.76692C57.6525 7.75362 58.0212 6.41896 59.1685 6.06164C59.1999 6.05258 59.2302 6.04109 59.2598 6.02779C59.7748 5.85491 60.3333 5.86338 60.8423 6.05197C61.1029 6.13901 61.3882 6.11061 61.6263 5.9746C61.8645 5.83799 62.0331 5.60648 62.0906 5.33809C62.1123 5.23231 62.6509 2.74134 65.1214 2.04313C66.8936 1.55654 69.0927 2.53517 69.7643 4.78024C69.89 5.2088 70.2956 5.49291 70.7411 5.46571C72.3152 5.39922 73.4539 5.83564 73.9025 7.69139H73.9019C73.9714 8.09819 74.2918 8.41494 74.6986 8.48023C74.9307 8.49352 76.9842 8.96682 76.8941 11.0069C76.9008 11.1918 76.8869 12.8052 74.7373 13.3166L74.7366 13.3165Z" fill="#01568F"/>
<path d="M24.6717 9.53424C24.8639 9.53424 25.0519 9.47621 25.2108 9.36681C27.1626 8.02368 29.3134 6.9949 31.5844 6.31789C32.0892 6.16738 32.3763 5.63606 32.2258 5.13192C32.0753 4.62719 31.5445 4.34007 31.0398 4.49059C28.5784 5.22441 26.2469 6.33962 24.1308 7.79576C23.3601 8.31379 23.756 9.54869 24.6718 9.53415L24.6717 9.53424Z" fill="#01568F"/>
<path d="M14.4661 25.6972C13.9408 25.664 13.4881 26.063 13.4548 26.5882C13.4222 27.1105 13.4053 27.6406 13.4053 28.1635V28.1641C13.4053 29.9516 13.5975 31.7341 13.9789 33.4803C14.0315 33.7294 14.1808 33.947 14.3942 34.0848C14.6082 34.2232 14.8681 34.2704 15.1165 34.216C15.365 34.1616 15.5814 34.0099 15.7174 33.7947C15.8534 33.5801 15.8981 33.3195 15.8413 33.0717C15.4889 31.4596 15.3112 29.8142 15.3118 28.164C15.3118 27.6804 15.3269 27.1908 15.3571 26.7085L15.3577 26.7079C15.3903 26.1826 14.9914 25.7298 14.4661 25.6972L14.4661 25.6972Z" fill="#01568F"/>
<path d="M30.9731 51.7747C32.0448 51.7686 32.2951 50.2496 31.259 49.9117L31.2584 49.9123C28.0221 48.8871 25.0541 47.1554 22.5692 44.8426C22.1836 44.4835 21.5809 44.5047 21.2219 44.8897C20.8628 45.2748 20.884 45.878 21.269 46.2371C24.0259 48.7596 27.3681 50.8147 30.9732 51.7746L30.9731 51.7747Z" fill="#01568F"/>
<path d="M53.6415 44.8436C51.3753 46.9628 48.6989 48.5936 45.7762 49.6358C45.535 49.7187 45.3368 49.8946 45.2262 50.1242C45.1156 50.3539 45.1016 50.6187 45.1875 50.8587C45.2727 51.0986 45.4516 51.2945 45.6825 51.4021C45.914 51.5097 46.1788 51.52 46.4176 51.4311C49.5844 50.3019 52.4858 48.5345 54.9412 46.2381C55.8352 45.3525 54.5924 44.0111 53.6416 44.8436L53.6415 44.8436Z" fill="#01568F"/>
<path d="M61.1894 33.8321C61.7056 33.9354 62.2079 33.6018 62.3131 33.0868C62.6395 31.4661 62.8039 29.8172 62.8039 28.1645C62.81 24.8654 62.1511 21.5981 60.8661 18.5596C60.3432 17.4177 58.6556 18.1214 59.1101 19.3013C60.2954 22.1054 60.9035 25.1199 60.8975 28.1645C60.8975 29.6902 60.7464 31.2128 60.4448 32.7083C60.3402 33.2245 60.6738 33.7274 61.1895 33.832L61.1894 33.8321Z" fill="#01568F"/>
<path d="M44.6256 6.31744C46.5206 6.88262 48.3334 7.69321 50.0181 8.72866C51.1055 9.35489 52.072 7.8008 51.0161 7.10447V7.10387C49.19 5.98197 47.2242 5.10303 45.1703 4.49071C44.6662 4.3402 44.1349 4.62732 43.9844 5.13144C43.8338 5.63617 44.121 6.16689 44.6257 6.31741L44.6256 6.31744Z" fill="#01568F"/>
<path d="M56.0649 31.0932C56.5884 31.1488 57.058 30.771 57.1155 30.2481C58.0524 21.9681 53.3544 13.8747 45.6856 10.6034C44.5178 10.1416 43.7846 11.813 44.9288 12.3539C51.8343 15.2988 56.065 22.5876 55.2199 30.0426H55.2205C55.1637 30.5655 55.5421 31.0358 56.065 31.0926L56.0649 31.0932Z" fill="#01568F"/>
<path d="M31.5502 10.1949C30.2887 10.6555 29.0791 11.2479 27.9428 11.9624C26.8953 12.6678 27.8733 14.2141 28.9571 13.5764V13.577C29.9799 12.9338 31.068 12.4007 32.2032 11.9854C33.3735 11.5182 32.7484 9.79968 31.5504 10.1951L31.5502 10.1949Z" fill="#01568F"/>
<path d="M20.1658 25.1061C19.6423 25.0457 19.1696 25.4211 19.1092 25.9439C18.9031 27.7276 18.9466 29.5321 19.2385 31.3038C19.4845 32.5429 21.287 32.2395 21.1196 30.9931H21.119C20.8567 29.3961 20.8174 27.7707 21.0029 26.1628C21.0634 25.6399 20.6886 25.1666 20.1657 25.1061L20.1658 25.1061Z" fill="#01568F"/>
<path d="M31.669 46.1776C32.8604 46.5663 33.4891 44.8472 32.3103 44.3823C30.4987 43.7355 28.8092 42.7876 27.3119 41.5794C27.1155 41.4162 26.8616 41.3382 26.6077 41.3636C26.3533 41.389 26.1199 41.5153 25.9597 41.7142C25.7996 41.9131 25.7258 42.1681 25.7554 42.4214C25.7845 42.6753 25.9144 42.9068 26.1163 43.064C27.7792 44.4059 29.6567 45.4589 31.669 46.1776L31.669 46.1776Z" fill="#01568F"/>
<path d="M48.8979 41.5786C47.5263 42.6848 45.9929 43.5734 44.3504 44.2128C43.862 44.405 43.6208 44.9569 43.8112 45.4459C44.0022 45.9355 44.5523 46.1785 45.0425 45.9893C46.8668 45.2785 48.5708 44.2913 50.0941 43.0625C51.0498 42.2441 49.9049 40.8175 48.8979 41.5785L48.8979 41.5786Z" fill="#01568F"/>
</svg>
