<svg width="72" height="70" viewBox="0 0 72 70" fill="none" xmlns="http://www.w3.org/2000/svg">
<path d="M70.8138 39.9734C70.5556 39.6515 70.1057 39.5568 69.7397 39.7481C69.0842 40.0624 68.3757 40.2522 67.6503 40.3069C66.9984 40.3778 66.34 40.2583 65.7543 39.9632C65.1682 39.6687 64.6803 39.2111 64.3487 38.6452C61.9106 34.8143 57.869 35.5395 55.3945 37.9123C54.9603 37.802 54.5189 37.7195 54.0741 37.6658C61.0907 30.845 65.3353 20.8978 65.5387 20.4106C65.7007 19.9733 65.4896 19.4864 65.0599 19.3057C64.6302 19.125 64.1346 19.3143 63.9352 19.7359C63.9352 19.7359 63.507 20.7953 62.6942 22.4058C62.5702 21.476 62.5995 20.5325 62.7812 19.6123C63.0647 17.9897 63.913 16.5193 65.1757 15.4619C64.8857 16.8559 65.2522 18.3059 66.1698 19.3947C68.0563 21.6875 66.5469 23.284 64.8781 24.1257C64.4256 24.2882 64.1898 24.7867 64.3522 25.2392C64.5147 25.6922 65.0132 25.9276 65.4662 25.7656C65.4662 25.7656 67.9844 24.7351 68.6443 22.5075C69.0431 21.1505 68.6443 19.7358 67.5343 18.306C66.1409 16.659 67.0555 14.6779 68.086 13.6403H68.0855C68.3831 13.3559 68.4403 12.9018 68.2232 12.5521C68.0045 12.1725 67.5353 12.0191 67.135 12.1963C66.9173 12.2763 61.8089 14.2062 61.0106 19.3435C60.6623 21.5999 60.8582 23.3051 61.5982 24.4227V24.4232C60.4513 26.5216 59.1865 28.5544 57.8108 30.511C57.8386 29.976 57.8214 29.4395 57.7602 28.9071C59.6902 27.1583 60.3724 24.3791 57.3537 22.5797C56.8962 22.2831 56.5601 21.8327 56.4057 21.3098C56.2514 20.7865 56.2893 20.2257 56.512 19.7281C56.6568 19.3541 56.5292 18.9294 56.2023 18.6966C55.8753 18.4638 55.4324 18.4825 55.1262 18.7417C55.0174 18.8505 51.897 21.7527 52.8116 25.4173C53.0014 26.2509 53.3325 27.046 53.791 27.7684C54.0654 28.1616 54.6054 28.2619 55.0027 27.9931C55.1936 27.8625 55.3241 27.6611 55.3667 27.4338C55.4087 27.2065 55.3586 26.9717 55.2275 26.7814C54.8858 26.2297 54.6404 25.6233 54.5022 24.9891C54.28 24.0239 54.3979 23.0116 54.8357 22.1228C55.1389 22.9423 55.7154 23.6321 56.4686 24.075C57.7456 24.8514 58.0432 25.7002 57.3174 26.8031C57.1721 26.3314 57.0274 25.9032 56.8821 25.4538V25.4533C56.7358 24.9947 56.2454 24.7411 55.7863 24.8874C55.3277 25.0337 55.0742 25.5241 55.2204 25.9832C55.9463 28.269 56.7515 30.0177 55.3293 33.7692V33.7687C53.6352 35.8257 51.684 37.657 49.5243 39.2185C45.555 41.9902 41.8765 45.8505 41.8765 55.2181C41.8618 59.9172 42.1817 64.6117 42.8346 69.2652C42.908 69.6842 43.2724 69.9905 43.6981 69.991C43.9522 69.99 44.1936 69.8776 44.3581 69.6838C44.5226 69.4899 44.5945 69.2333 44.554 68.9822C43.9147 64.4148 43.6019 59.8078 43.6181 55.1956C43.5381 48.6289 45.7151 43.731 50.5259 40.6252C50.983 40.2987 51.4329 39.9576 51.8753 39.6093C54.5528 38.3976 59.0514 41.4815 61.9324 42.3521C62.3864 42.4685 62.851 42.2048 62.9836 41.7554C63.1167 41.3059 62.8697 40.8322 62.4258 40.6834C60.9748 40.2263 58.9866 39.1523 57.3467 38.5064C59.2478 37.2147 61.3595 37.157 62.8759 39.5511C63.7722 41.063 65.3782 42.0125 67.1351 42.0692C65.36 43.4545 63.1082 44.0806 60.873 43.8104C57.7314 43.2881 57.1726 41.8222 56.9115 41.1183L56.911 41.1188C56.7409 40.6678 56.2373 40.4405 55.7863 40.6106C55.3358 40.7812 55.1081 41.2848 55.2786 41.7353C55.7868 43.0705 56.8821 44.9133 60.5901 45.5303C65.7345 46.5462 70.4296 41.6917 70.8067 41.0823C71.078 40.763 71.081 40.2948 70.8138 39.9724L70.8138 39.9734Z" fill="#01568F"/>
<path d="M20.6374 32.3325C18.8184 29.0587 17.6411 25.4681 17.1688 21.7531C17.0377 20.8274 16.9602 19.8945 16.9364 18.9596C16.9364 18.4788 16.5467 18.0886 16.0659 18.0886C15.585 18.0886 15.1953 18.4788 15.1953 18.9596C15.1953 19.0249 15.1953 19.6855 15.297 20.759C13.6718 20.1132 13.2218 19.025 14.1653 17.298H14.1648C14.6912 16.3788 14.8395 15.2912 14.5783 14.2647C15.6473 14.9019 16.4449 15.9087 16.8206 17.0946C17.0433 17.7981 17.149 18.5335 17.1323 19.2715C17.1025 19.5084 17.1708 19.7473 17.3216 19.9326C17.4725 20.1173 17.6926 20.2322 17.931 20.2504C18.1689 20.2681 18.4038 20.1877 18.5809 20.0272C18.7581 19.8668 18.8613 19.641 18.8669 19.4021C18.9155 18.448 18.7975 17.493 18.5186 16.5794C17.3576 12.5161 12.7136 11.5002 12.5395 11.5002C12.1366 11.4015 11.7195 11.6004 11.5434 11.976C11.3673 12.3516 11.4801 12.799 11.8137 13.046C12.3365 13.4216 12.7075 13.9722 12.8594 14.5979C13.0112 15.2236 12.9338 15.883 12.6407 16.4565C10.8413 19.6998 12.7425 21.9639 15.5429 22.6532H15.5434C15.9605 25.4167 16.7364 28.115 17.851 30.6782C17.3757 30.5491 16.8898 30.4615 16.3994 30.417C14.6795 27.239 11.2037 25.6355 7.82978 28.2401C5.86338 29.8146 3.58471 28.69 2.38771 27.4419H2.38822C2.12655 27.0881 1.64267 26.9823 1.25749 27.1954C0.8718 27.4079 0.70377 27.8736 0.864207 28.2836C0.9295 28.5518 2.48944 34.8138 8.27968 35.9026C11.603 36.592 14.2876 35.4673 15.2599 34.2697L15.2604 34.2702C15.5449 33.9033 15.4912 33.3774 15.1389 33.0757C14.7862 32.7736 14.2587 32.8009 13.9399 33.138C13.3811 33.7909 11.6253 34.7491 8.59953 34.1903H8.59902C6.47273 33.7226 4.65974 32.3423 3.64337 30.417C4.49622 30.7723 5.4285 30.8922 6.34367 30.7647C7.25885 30.6371 8.12271 30.2666 8.84599 29.6917C10.9794 28.0447 12.9023 28.647 14.2734 30.4175C12.5682 30.4757 10.413 30.9327 8.91129 30.8745V30.874C8.67998 30.8588 8.45272 30.9358 8.27861 31.0881C8.10451 31.2404 7.9977 31.4561 7.98251 31.6869C7.95012 32.1677 8.31404 32.5838 8.79487 32.6157C11.9806 32.7392 16.8204 30.9975 19.2943 33.4791H19.2948C21.1099 36.5433 23.6968 39.0776 26.7974 40.8294C29.4024 42.2194 31.5855 44.2844 33.1175 46.8086C34.4568 50.0065 35.1068 53.4508 35.0258 56.9163C35.0258 65.1301 34.0681 68.8669 34.0535 68.9034C33.9295 69.3685 34.2053 69.8458 34.6705 69.9704C35.1351 70.0944 35.6124 69.8185 35.7369 69.3534C35.7804 69.1939 36.7674 65.3988 36.7674 56.9164C36.7674 50.1467 34.7575 46.1775 34.6704 46.0323C32.99 43.1913 30.5565 40.8706 27.639 39.3279C24.8192 37.7377 22.4712 35.4296 20.8329 32.6377L20.6374 32.3325Z" fill="#01568F"/>
<path d="M47.8331 37.5426C48.6364 36.1188 49.298 34.6192 49.8065 33.0657L52.4187 33.2469C52.8996 33.2631 53.3025 32.886 53.3186 32.4052C53.3348 31.9243 52.9578 31.5215 52.4769 31.5058L50.3 31.3534C51.8675 25.268 51.8675 18.8846 50.3 12.7985C53.0064 12.6098 55.3791 12.4356 56.3732 12.3562H56.3737C57.5166 14.4546 58.2783 16.7394 58.623 19.1041C58.6928 19.589 59.1428 19.9255 59.6277 19.8552C59.8605 19.8218 60.0705 19.6968 60.2112 19.5085C60.3525 19.3197 60.4127 19.0833 60.3788 18.8505C56.8742 -3.12121 27.2767 -7.05376 18.1703 13.2703C17.9704 13.7112 18.1653 14.231 18.6061 14.4314C19.047 14.6318 19.5668 14.437 19.7667 13.9961C20.0061 13.4444 20.2749 12.9079 20.5578 12.385C21.559 12.465 23.9029 12.6462 26.6311 12.8274V12.8279C25.9073 15.5768 25.515 18.4025 25.4629 21.2446H21.2037C20.7228 21.2446 20.3331 21.6348 20.3331 22.1156C20.3331 22.5965 20.7228 22.9862 21.2037 22.9862H37.6102V30.7723C36.3838 30.8158 34.4539 30.9099 32.6328 31.0117H32.6323C32.1515 31.0375 31.783 31.4485 31.8088 31.9293C31.8346 32.4101 32.2456 32.7791 32.7264 32.7528C34.5187 32.6511 36.4127 32.5569 37.6098 32.5134L37.6103 42.4035C34.0764 42.0264 31.1813 38.0495 29.4761 34.8933C31.2612 32.7163 31.5583 29.6541 28.025 28.2177C27.4556 27.9666 26.9955 27.5192 26.7292 26.9569C26.4625 26.3945 26.4073 25.7553 26.5739 25.156C26.6756 24.7602 26.4883 24.3472 26.1244 24.1625C25.76 23.9777 25.3161 24.0709 25.0569 24.3867C23.7435 26.0119 21.5377 30.2422 25.0569 34.2914C25.39 34.6209 25.9235 34.6285 26.2656 34.3081C26.6073 33.9877 26.6341 33.4548 26.3269 33.1015C25.8561 32.5533 25.4856 31.9272 25.2311 31.251C24.8008 30.1476 24.7851 28.9253 25.1875 27.8118C25.6309 28.7345 26.4094 29.4532 27.3645 29.8217C29.1061 30.5475 29.4397 31.614 28.6197 33.0727V33.0722C28.3894 32.524 28.2194 31.9521 28.1121 31.367C28.0341 30.8912 27.5872 30.5673 27.1104 30.6417C26.8811 30.6771 26.6756 30.8032 26.539 30.9909C26.4028 31.1792 26.3476 31.4136 26.3851 31.6428C26.7262 33.7468 28.3444 36.8526 30.6084 39.7553C35.854 46.6192 43.6033 45.2332 47.8338 37.5419L47.8331 37.5426ZM49.756 21.2099H39.3506V13.388C41.6364 13.3444 45.2133 13.1339 48.5514 12.9162C49.3015 15.619 49.7059 18.4053 49.756 21.2099L49.756 21.2099ZM39.3506 1.74931C43.2545 2.17751 46.6067 6.93729 48.0073 11.1824C44.8292 11.3929 41.4771 11.5812 39.3506 11.6247V1.74931ZM37.609 1.74931L37.6095 11.6465C35.4326 11.603 32.1311 11.4142 28.9459 11.2041C30.3606 6.93728 33.7056 2.1629 37.6095 1.7493L37.609 1.74931ZM51.8971 6.69784C53.2419 7.86856 54.4272 9.21039 55.4234 10.6888C54.1317 10.783 52.093 10.9353 49.8361 11.0877H49.8366C48.8663 7.92983 47.149 5.0524 44.8298 2.69987C47.4303 3.54311 49.8345 4.90313 51.8971 6.69785L51.8971 6.69784ZM21.5666 10.6812C24.1034 6.92057 27.8206 4.11247 32.1313 2.69973C29.8248 5.05783 28.1156 7.93423 27.1463 11.0875C24.8822 10.9281 22.8724 10.7828 21.5666 10.6811V10.6812ZM27.2263 21.21C27.2759 18.4054 27.6804 15.6187 28.431 12.9163C31.7614 13.134 35.3388 13.3369 37.6317 13.388V21.21L27.2263 21.21ZM49.7785 22.9516V22.9511C49.7279 25.7531 49.3235 28.5374 48.5739 31.2377C45.1564 31.013 41.6296 30.8095 39.3732 30.766V22.9512L49.7785 22.9516ZM39.3514 42.4044V32.5072C41.5284 32.5579 44.9241 32.7467 48.0081 32.9496C46.6005 37.2165 43.2483 41.9762 39.3514 42.4044V42.4044Z" fill="#01568F"/>
</svg>
