<svg width="131" height="112" viewBox="0 0 131 112" fill="none" xmlns="http://www.w3.org/2000/svg">
<circle cx="1.67521" cy="1.67521" r="1.67521" fill="white" fill-opacity="0.5"/>
<circle cx="19.7836" cy="1.67521" r="1.67521" fill="white" fill-opacity="0.5"/>
<circle cx="37.8925" cy="1.67521" r="1.67521" fill="white" fill-opacity="0.5"/>
<circle cx="56.0009" cy="1.67521" r="1.67521" fill="white" fill-opacity="0.5"/>
<circle cx="74.1098" cy="1.67521" r="1.67521" fill="white" fill-opacity="0.5"/>
<circle cx="92.2182" cy="1.67521" r="1.67521" fill="white" fill-opacity="0.5"/>
<circle cx="110.327" cy="1.67521" r="1.67521" fill="white" fill-opacity="0.5"/>
<circle cx="128.435" cy="1.67521" r="1.67521" fill="white" fill-opacity="0.5"/>
<circle cx="1.67521" cy="19.7835" r="1.67521" fill="white" fill-opacity="0.5"/>
<circle cx="19.7836" cy="19.7835" r="1.67521" fill="white" fill-opacity="0.5"/>
<circle cx="37.8925" cy="19.7835" r="1.67521" fill="white" fill-opacity="0.5"/>
<circle cx="56.0009" cy="19.7835" r="1.67521" fill="white" fill-opacity="0.5"/>
<circle cx="74.1098" cy="19.7835" r="1.67521" fill="white" fill-opacity="0.5"/>
<circle cx="92.2182" cy="19.7835" r="1.67521" fill="white" fill-opacity="0.5"/>
<circle cx="110.327" cy="19.7835" r="1.67521" fill="white" fill-opacity="0.5"/>
<circle cx="128.435" cy="19.7835" r="1.67521" fill="white" fill-opacity="0.5"/>
<circle cx="1.67521" cy="37.8918" r="1.67521" fill="white" fill-opacity="0.5"/>
<circle cx="19.7836" cy="37.8918" r="1.67521" fill="white" fill-opacity="0.5"/>
<circle cx="37.8925" cy="37.8918" r="1.67521" fill="white" fill-opacity="0.5"/>
<circle cx="56.0009" cy="37.8918" r="1.67521" fill="white" fill-opacity="0.5"/>
<circle cx="74.1098" cy="37.8918" r="1.67521" fill="white" fill-opacity="0.5"/>
<circle cx="92.2182" cy="37.8918" r="1.67521" fill="white" fill-opacity="0.5"/>
<circle cx="110.327" cy="37.8918" r="1.67521" fill="white" fill-opacity="0.5"/>
<circle cx="128.435" cy="37.8918" r="1.67521" fill="white" fill-opacity="0.5"/>
<circle cx="1.67521" cy="56" r="1.67521" fill="white" fill-opacity="0.5"/>
<circle cx="19.7836" cy="56" r="1.67521" fill="white" fill-opacity="0.5"/>
<circle cx="37.8925" cy="56" r="1.67521" fill="white" fill-opacity="0.5"/>
<circle cx="56.0009" cy="56" r="1.67521" fill="white" fill-opacity="0.5"/>
<circle cx="74.1098" cy="56" r="1.67521" fill="white" fill-opacity="0.5"/>
<circle cx="92.2182" cy="56" r="1.67521" fill="white" fill-opacity="0.5"/>
<circle cx="110.327" cy="56" r="1.67521" fill="white" fill-opacity="0.5"/>
<circle cx="128.435" cy="56" r="1.67521" fill="white" fill-opacity="0.5"/>
<circle cx="1.67521" cy="74.1083" r="1.67521" fill="white" fill-opacity="0.5"/>
<circle cx="19.7836" cy="74.1083" r="1.67521" fill="white" fill-opacity="0.5"/>
<circle cx="37.8925" cy="74.1083" r="1.67521" fill="white" fill-opacity="0.5"/>
<circle cx="56.0009" cy="74.1083" r="1.67521" fill="white" fill-opacity="0.5"/>
<circle cx="74.1098" cy="74.1083" r="1.67521" fill="white" fill-opacity="0.5"/>
<circle cx="92.2182" cy="74.1083" r="1.67521" fill="white" fill-opacity="0.5"/>
<circle cx="110.327" cy="74.1083" r="1.67521" fill="white" fill-opacity="0.5"/>
<circle cx="128.435" cy="74.1083" r="1.67521" fill="white" fill-opacity="0.5"/>
<circle cx="1.67521" cy="92.2165" r="1.67521" fill="white" fill-opacity="0.5"/>
<circle cx="19.7836" cy="92.2165" r="1.67521" fill="white" fill-opacity="0.5"/>
<circle cx="37.8925" cy="92.2165" r="1.67521" fill="white" fill-opacity="0.5"/>
<circle cx="56.0009" cy="92.2165" r="1.67521" fill="white" fill-opacity="0.5"/>
<circle cx="74.1098" cy="92.2165" r="1.67521" fill="white" fill-opacity="0.5"/>
<circle cx="92.2182" cy="92.2165" r="1.67521" fill="white" fill-opacity="0.5"/>
<circle cx="110.327" cy="92.2165" r="1.67521" fill="white" fill-opacity="0.5"/>
<circle cx="128.435" cy="92.2165" r="1.67521" fill="white" fill-opacity="0.5"/>
<circle cx="1.67521" cy="110.325" r="1.67521" fill="white" fill-opacity="0.5"/>
<circle cx="19.7836" cy="110.325" r="1.67521" fill="white" fill-opacity="0.5"/>
<circle cx="37.8925" cy="110.325" r="1.67521" fill="white" fill-opacity="0.5"/>
<circle cx="56.0009" cy="110.325" r="1.67521" fill="white" fill-opacity="0.5"/>
<circle cx="74.1098" cy="110.325" r="1.67521" fill="white" fill-opacity="0.5"/>
<circle cx="92.2182" cy="110.325" r="1.67521" fill="white" fill-opacity="0.5"/>
<circle cx="110.327" cy="110.325" r="1.67521" fill="white" fill-opacity="0.5"/>
<circle cx="128.435" cy="110.325" r="1.67521" fill="white" fill-opacity="0.5"/>
</svg>
