<svg width="131" height="256" viewBox="0 0 131 256" fill="none" xmlns="http://www.w3.org/2000/svg">
<g opacity="0.4">
<circle cx="1.67521" cy="1.67521" r="1.67521" fill="#689ABB"/>
<circle cx="19.7836" cy="1.67521" r="1.67521" fill="#689ABB"/>
<circle cx="37.8925" cy="1.67521" r="1.67521" fill="#689ABB"/>
<circle cx="56.0009" cy="1.67521" r="1.67521" fill="#689ABB"/>
<circle cx="74.1098" cy="1.67521" r="1.67521" fill="#689ABB"/>
<circle cx="92.2182" cy="1.67521" r="1.67521" fill="#689ABB"/>
<circle cx="110.327" cy="1.67521" r="1.67521" fill="#689ABB"/>
<circle cx="128.435" cy="1.67521" r="1.67521" fill="#689ABB"/>
<circle cx="1.67521" cy="19.7835" r="1.67521" fill="#689ABB"/>
<circle cx="19.7836" cy="19.7835" r="1.67521" fill="#689ABB"/>
<circle cx="37.8925" cy="19.7835" r="1.67521" fill="#689ABB"/>
<circle cx="56.0009" cy="19.7835" r="1.67521" fill="#689ABB"/>
<circle cx="74.1098" cy="19.7835" r="1.67521" fill="#689ABB"/>
<circle cx="92.2182" cy="19.7835" r="1.67521" fill="#689ABB"/>
<circle cx="110.327" cy="19.7835" r="1.67521" fill="#689ABB"/>
<circle cx="128.435" cy="19.7835" r="1.67521" fill="#689ABB"/>
<circle cx="1.67521" cy="37.8918" r="1.67521" fill="#689ABB"/>
<circle cx="19.7836" cy="37.8918" r="1.67521" fill="#689ABB"/>
<circle cx="37.8925" cy="37.8918" r="1.67521" fill="#689ABB"/>
<circle cx="56.0009" cy="37.8918" r="1.67521" fill="#689ABB"/>
<circle cx="74.1098" cy="37.8918" r="1.67521" fill="#689ABB"/>
<circle cx="92.2182" cy="37.8918" r="1.67521" fill="#689ABB"/>
<circle cx="110.327" cy="37.8918" r="1.67521" fill="#689ABB"/>
<circle cx="128.435" cy="37.8918" r="1.67521" fill="#689ABB"/>
<circle cx="1.67521" cy="55.9999" r="1.67521" fill="#689ABB"/>
<circle cx="1.67521" cy="163.675" r="1.67521" fill="#689ABB"/>
<circle cx="19.7836" cy="55.9999" r="1.67521" fill="#689ABB"/>
<circle cx="19.7836" cy="163.675" r="1.67521" fill="#689ABB"/>
<circle cx="37.892" cy="55.9999" r="1.67521" fill="#689ABB"/>
<circle cx="37.892" cy="163.675" r="1.67521" fill="#689ABB"/>
<circle cx="56.0014" cy="55.9999" r="1.67521" fill="#689ABB"/>
<circle cx="56.0014" cy="163.675" r="1.67521" fill="#689ABB"/>
<circle cx="74.1098" cy="55.9999" r="1.67521" fill="#689ABB"/>
<circle cx="74.1098" cy="163.675" r="1.67521" fill="#689ABB"/>
<circle cx="92.2182" cy="55.9999" r="1.67521" fill="#689ABB"/>
<circle cx="92.2182" cy="163.675" r="1.67521" fill="#689ABB"/>
<circle cx="110.327" cy="55.9999" r="1.67521" fill="#689ABB"/>
<circle cx="110.327" cy="163.675" r="1.67521" fill="#689ABB"/>
<circle cx="128.436" cy="55.9999" r="1.67521" fill="#689ABB"/>
<circle cx="128.436" cy="163.675" r="1.67521" fill="#689ABB"/>
<circle cx="1.67521" cy="74.1083" r="1.67521" fill="#689ABB"/>
<circle cx="1.67521" cy="181.784" r="1.67521" fill="#689ABB"/>
<circle cx="19.7836" cy="74.1083" r="1.67521" fill="#689ABB"/>
<circle cx="19.7836" cy="181.784" r="1.67521" fill="#689ABB"/>
<circle cx="37.892" cy="74.1083" r="1.67521" fill="#689ABB"/>
<circle cx="37.892" cy="181.784" r="1.67521" fill="#689ABB"/>
<circle cx="56.0014" cy="74.1083" r="1.67521" fill="#689ABB"/>
<circle cx="56.0014" cy="181.784" r="1.67521" fill="#689ABB"/>
<circle cx="74.1098" cy="74.1083" r="1.67521" fill="#689ABB"/>
<circle cx="74.1098" cy="181.784" r="1.67521" fill="#689ABB"/>
<circle cx="92.2182" cy="74.1083" r="1.67521" fill="#689ABB"/>
<circle cx="92.2182" cy="181.784" r="1.67521" fill="#689ABB"/>
<circle cx="110.327" cy="74.1083" r="1.67521" fill="#689ABB"/>
<circle cx="110.327" cy="181.784" r="1.67521" fill="#689ABB"/>
<circle cx="128.436" cy="74.1083" r="1.67521" fill="#689ABB"/>
<circle cx="128.436" cy="181.784" r="1.67521" fill="#689ABB"/>
<circle cx="1.67521" cy="92.2165" r="1.67521" fill="#689ABB"/>
<circle cx="1.67521" cy="199.892" r="1.67521" fill="#689ABB"/>
<circle cx="19.7836" cy="92.2165" r="1.67521" fill="#689ABB"/>
<circle cx="19.7836" cy="199.892" r="1.67521" fill="#689ABB"/>
<circle cx="37.892" cy="92.2165" r="1.67521" fill="#689ABB"/>
<circle cx="37.892" cy="199.892" r="1.67521" fill="#689ABB"/>
<circle cx="56.0014" cy="92.2165" r="1.67521" fill="#689ABB"/>
<circle cx="56.0014" cy="199.892" r="1.67521" fill="#689ABB"/>
<circle cx="74.1098" cy="92.2165" r="1.67521" fill="#689ABB"/>
<circle cx="74.1098" cy="199.892" r="1.67521" fill="#689ABB"/>
<circle cx="92.2182" cy="92.2165" r="1.67521" fill="#689ABB"/>
<circle cx="92.2182" cy="199.892" r="1.67521" fill="#689ABB"/>
<circle cx="110.327" cy="92.2165" r="1.67521" fill="#689ABB"/>
<circle cx="110.327" cy="199.892" r="1.67521" fill="#689ABB"/>
<circle cx="128.436" cy="92.2165" r="1.67521" fill="#689ABB"/>
<circle cx="128.436" cy="199.892" r="1.67521" fill="#689ABB"/>
<circle cx="1.67521" cy="110.325" r="1.67521" fill="#689ABB"/>
<circle cx="1.67521" cy="218" r="1.67521" fill="#689ABB"/>
<circle cx="19.7836" cy="110.325" r="1.67521" fill="#689ABB"/>
<circle cx="19.7836" cy="218" r="1.67521" fill="#689ABB"/>
<circle cx="37.892" cy="110.325" r="1.67521" fill="#689ABB"/>
<circle cx="37.892" cy="218" r="1.67521" fill="#689ABB"/>
<circle cx="56.0014" cy="110.325" r="1.67521" fill="#689ABB"/>
<circle cx="56.0014" cy="218" r="1.67521" fill="#689ABB"/>
<circle cx="74.1098" cy="110.325" r="1.67521" fill="#689ABB"/>
<circle cx="74.1098" cy="218" r="1.67521" fill="#689ABB"/>
<circle cx="92.2182" cy="110.325" r="1.67521" fill="#689ABB"/>
<circle cx="92.2182" cy="218" r="1.67521" fill="#689ABB"/>
<circle cx="110.327" cy="110.325" r="1.67521" fill="#689ABB"/>
<circle cx="110.327" cy="218" r="1.67521" fill="#689ABB"/>
<circle cx="128.436" cy="110.325" r="1.67521" fill="#689ABB"/>
<circle cx="128.436" cy="218" r="1.67521" fill="#689ABB"/>
<circle cx="1.67521" cy="128.216" r="1.67521" fill="#689ABB"/>
<circle cx="1.67521" cy="235.892" r="1.67521" fill="#689ABB"/>
<circle cx="19.7836" cy="128.216" r="1.67521" fill="#689ABB"/>
<circle cx="19.7836" cy="235.892" r="1.67521" fill="#689ABB"/>
<circle cx="37.892" cy="128.216" r="1.67521" fill="#689ABB"/>
<circle cx="37.892" cy="235.892" r="1.67521" fill="#689ABB"/>
<circle cx="56.0014" cy="128.216" r="1.67521" fill="#689ABB"/>
<circle cx="56.0014" cy="235.892" r="1.67521" fill="#689ABB"/>
<circle cx="74.1098" cy="128.216" r="1.67521" fill="#689ABB"/>
<circle cx="74.1098" cy="235.892" r="1.67521" fill="#689ABB"/>
<circle cx="92.2182" cy="128.216" r="1.67521" fill="#689ABB"/>
<circle cx="92.2182" cy="235.892" r="1.67521" fill="#689ABB"/>
<circle cx="110.327" cy="128.216" r="1.67521" fill="#689ABB"/>
<circle cx="110.327" cy="235.892" r="1.67521" fill="#689ABB"/>
<circle cx="128.436" cy="128.216" r="1.67521" fill="#689ABB"/>
<circle cx="128.436" cy="235.892" r="1.67521" fill="#689ABB"/>
<circle cx="1.67521" cy="146.325" r="1.67521" fill="#689ABB"/>
<circle cx="1.67521" cy="254" r="1.67521" fill="#689ABB"/>
<circle cx="19.7836" cy="146.325" r="1.67521" fill="#689ABB"/>
<circle cx="19.7836" cy="254" r="1.67521" fill="#689ABB"/>
<circle cx="37.892" cy="146.325" r="1.67521" fill="#689ABB"/>
<circle cx="37.892" cy="254" r="1.67521" fill="#689ABB"/>
<circle cx="56.0014" cy="146.325" r="1.67521" fill="#689ABB"/>
<circle cx="56.0014" cy="254" r="1.67521" fill="#689ABB"/>
<circle cx="74.1098" cy="146.325" r="1.67521" fill="#689ABB"/>
<circle cx="74.1098" cy="254" r="1.67521" fill="#689ABB"/>
<circle cx="92.2182" cy="146.325" r="1.67521" fill="#689ABB"/>
<circle cx="92.2182" cy="254" r="1.67521" fill="#689ABB"/>
<circle cx="110.327" cy="146.325" r="1.67521" fill="#689ABB"/>
<circle cx="110.327" cy="254" r="1.67521" fill="#689ABB"/>
<circle cx="128.436" cy="146.325" r="1.67521" fill="#689ABB"/>
<circle cx="128.436" cy="254" r="1.67521" fill="#689ABB"/>
</g>
</svg>
